{
  "accessors": [
    {
      "bufferView": 2,
      "componentType": 5126,
      "count": 1084,
      "max": [
        0.3580490052700043,
        -0.31445398926734924,
        2.358048915863037
      ],
      "min": [
        -0.3580490052700043,
        -0.5152590274810791,
        1.6419509649276733
      ],
      "type": "VEC3"
    },
    {
      "bufferView": 2,
      "byteOffset": 13008,
      "componentType": 5126,
      "count": 1084,
      "max": [
        0.9901367425918579,
        1.0,
        0.9901367425918579
      ],
      "min": [
        -0.9901367425918579,
        -1.0,
        -0.9901367425918579
      ],
      "type": "VEC3"
    },
    {
      "bufferView": 1,
      "componentType": 5126,
      "count": 1084,
      "max": [
        0.6666669845581055,
        1.0
      ],
      "min": [
        0.33333298563957214,
        0.7685189843177795
      ],
      "type": "VEC2"
    },
    {
      "bufferView": 0,
      "componentType": 5125,
      "count": 6144,
      "type": "SCALAR"
    },
    {
      "bufferView": 2,
      "byteOffset": 26016,
      "componentType": 5126,
      "count": 578,
      "max": [
        0.2686249911785126,
        0.6287940144538879,
        1.83263099193573
      ],
      "min": [
        0.0932219997048378,
        0.4533909857273102,
        1.4986480474472046
      ],
      "type": "VEC3"
    },
    {
      "bufferView": 2,
      "byteOffset": 32952,
      "componentType": 5126,
      "count": 578,
      "max": [
        1.0,
        1.0,
        1.0
      ],
      "min": [
        -1.0,
        -1.0,
        -1.0
      ],
      "type": "VEC3"
    },
    {
      "bufferView": 1,
      "byteOffset": 8672,
      "componentType": 5126,
      "count": 578,
      "max": [
        1.0,
        1.0
      ],
      "min": [
        0.0,
        0.009999999776482582
      ],
      "type": "VEC2"
    },
    {
      "bufferView": 0,
      "byteOffset": 24576,
      "componentType": 5125,
      "count": 2100,
      "type": "SCALAR"
    },
    {
      "bufferView": 2,
      "byteOffset": 39888,
      "componentType": 5126,
      "count": 125,
      "max": [
        0.2201479971408844,
        0.5803179740905762,
        1.8718559741973877
      ],
      "min": [
        0.14169800281524658,
        0.5018669962882996,
        1.7934060096740723
      ],
      "type": "VEC3"
    },
    {
      "bufferView": 2,
      "byteOffset": 41388,
      "componentType": 5126,
      "count": 125,
      "max": [
        1.0,
        1.0,
        1.0
      ],
      "min": [
        -1.0,
        -1.0,
        -1.0
      ],
      "type": "VEC3"
    },
    {
      "bufferView": 1,
      "byteOffset": 13296,
      "componentType": 5126,
      "count": 125,
      "max": [
        0.875,
        1.0
      ],
      "min": [
        0.125,
        0.0
      ],
      "type": "VEC2"
    },
    {
      "bufferView": 0,
      "byteOffset": 32976,
      "componentType": 5125,
      "count": 576,
      "type": "SCALAR"
    },
    {
      "bufferView": 2,
      "byteOffset": 42888,
      "componentType": 5126,
      "count": 2738,
      "max": [
        0.7692430019378662,
        0.37776800990104675,
        2.0897889137268066
      ],
      "min": [
        -0.7560709714889526,
        -0.37776800990104675,
        0.3403570055961609
      ],
      "type": "VEC3"
    },
    {
      "bufferView": 2,
      "byteOffset": 75744,
      "componentType": 5126,
      "count": 2738,
      "max": [
        1.0,
        1.0,
        1.0
      ],
      "min": [
        -1.0,
        -1.0,
        -1.0
      ],
      "type": "VEC3"
    },
    {
      "bufferView": 1,
      "byteOffset": 14296,
      "componentType": 5126,
      "count": 2738,
      "max": [
        1.0,
        1.0
      ],
      "min": [
        0.0,
        0.0
      ],
      "type": "VEC2"
    },
    {
      "bufferView": 0,
      "byteOffset": 35280,
      "componentType": 5125,
      "count": 13620,
      "type": "SCALAR"
    },
    {
      "bufferView": 2,
      "byteOffset": 108600,
      "componentType": 5126,
      "count": 7685,
      "max": [
        0.7980509996414185,
        0.8525109887123108,
        2.5093040466308594
      ],
      "min": [
        -0.784358024597168,
        -0.46641701459884644,
        0.007042999844998121
      ],
      "type": "VEC3"
    },
    {
      "bufferView": 2,
      "byteOffset": 200820,
      "componentType": 5126,
      "count": 7685,
      "max": [
        0.9999819993972778,
        1.0,
        1.0
      ],
      "min": [
        -0.9999819993972778,
        -1.0,
        -1.0
      ],
      "type": "VEC3"
    },
    {
      "bufferView": 1,
      "byteOffset": 36200,
      "componentType": 5126,
      "count": 7685,
      "max": [
        0.875,
        1.0
      ],
      "min": [
        0.125,
        0.0
      ],
      "type": "VEC2"
    },
    {
      "bufferView": 0,
      "byteOffset": 89760,
      "componentType": 5125,
      "count": 43392,
      "type": "SCALAR"
    },
    {
      "bufferView": 2,
      "byteOffset": 293040,
      "componentType": 5126,
      "count": 2873,
      "max": [
        0.5897390246391296,
        0.22481000423431396,
        2.044735908508301
      ],
      "min": [
        -0.5897390246391296,
        -0.24999099969863892,
        0.007042999844998121
      ],
      "type": "VEC3"
    },
    {
      "bufferView": 2,
      "byteOffset": 327516,
      "componentType": 5126,
      "count": 2873,
      "max": [
        0.9985467791557312,
        1.0,
        1.0
      ],
      "min": [
        -0.9999910593032837,
        -1.0,
        -1.0
      ],
      "type": "VEC3"
    },
    {
      "bufferView": 1,
      "byteOffset": 97680,
      "componentType": 5126,
      "count": 2873,
      "max": [
        0.875,
        1.0
      ],
      "min": [
        0.125,
        0.0
      ],
      "type": "VEC2"
    },
    {
      "bufferView": 0,
      "byteOffset": 263328,
      "componentType": 5125,
      "count": 16308,
      "type": "SCALAR"
    }
  ],
  "asset": {
    "extras": {
      "author": "Naomifz (https://sketchfab.com/naomifz)",
      "license": "CC-BY-NC-ND-4.0 (http://creativecommons.org/licenses/by-nc-nd/4.0/)",
      "source": "https://sketchfab.com/3d-models/3d-cute-astronaut-made-in-blender-796a83aef2cd40978d34bb184a15eacc",
      "title": "3D Cute Astronaut made in Blender"
    },
    "generator": "Sketchfab-10.97.0",
    "version": "2.0"
  },
  "bufferViews": [
    {
      "buffer": 0,
      "byteLength": 328560,
      "name": "floatBufferViews",
      "target": 34963
    },
    {
      "buffer": 0,
      "byteLength": 120664,
      "byteOffset": 328560,
      "byteStride": 8,
      "name": "floatBufferViews",
      "target": 34962
    },
    {
      "buffer": 0,
      "byteLength": 361992,
      "byteOffset": 449224,
      "byteStride": 12,
      "name": "floatBufferViews",
      "target": 34962
    }
  ],
  "buffers": [
    {
      "byteLength": 811216,
      "uri": "scene.bin"
    }
  ],
  "extensionsRequired": [
    "KHR_materials_pbrSpecularGlossiness"
  ],
  "extensionsUsed": [
    "KHR_materials_pbrSpecularGlossiness"
  ],
  "materials": [
    {
      "doubleSided": true,
      "extensions": {
        "KHR_materials_pbrSpecularGlossiness": {
          "diffuseFactor": [
            0.7991027380144083,
            0.2122307574140549,
            0.08437621154414876,
            1.0
          ],
          "glossinessFactor": 0.49971575190461426,
          "specularFactor": [
            0.08075229982549903,
            0.08075229982549903,
            0.08075229982549903
          ]
        }
      },
      "name": "Brazelet"
    },
    {
      "doubleSided": true,
      "extensions": {
        "KHR_materials_pbrSpecularGlossiness": {
          "diffuseFactor": [
            0.04418427318285575,
            0.28310505892239984,
            0.7409556523337896,
            1.0
          ],
          "glossinessFactor": 0.2041649578,
          "specularFactor": [
            0.42007333710729,
            0.5528433816544759,
            0.6138836139338757
          ]
        }
      },
      "name": "Material"
    },
    {
      "doubleSided": true,
      "extensions": {
        "KHR_materials_pbrSpecularGlossiness": {
          "diffuseFactor": [
            0.6994024055223932,
            0.6855277801708156,
            0.6855277801708156,
            1.0
          ],
          "glossinessFactor": 0.2188449455,
          "specularFactor": [
            0.6279678845253513,
            0.6279678845253513,
            0.6279678845253513
          ]
        }
      },
      "name": "Material.002"
    },
    {
      "doubleSided": true,
      "extensions": {
        "KHR_materials_pbrSpecularGlossiness": {
          "diffuseFactor": [
            0.7999999999999999,
            0.09077200000000007,
            0.07674000000000006,
            1.0
          ],
          "glossinessFactor": 0.2188449455,
          "specularFactor": [
            0.0,
            0.0,
            0.0
          ]
        }
      },
      "name": "Material.003"
    },
    {
      "doubleSided": true,
      "extensions": {
        "KHR_materials_pbrSpecularGlossiness": {
          "diffuseFactor": [
            0.664345,
            0.789554,
            0.8,
            1.0
          ],
          "glossinessFactor": 0.6578002541512382,
          "specularFactor": [
            0.0,
            0.0,
            0.0
          ]
        }
      },
      "name": "Suit"
    }
  ],
  "meshes": [
    {
      "name": "Object_0",
      "primitives": [
        {
          "attributes": {
            "NORMAL": 1,
            "POSITION": 0,
            "TEXCOORD_0": 2
          },
          "indices": 3,
          "material": 1,
          "mode": 4
        }
      ]
    },
    {
      "name": "Object_1",
      "primitives": [
        {
          "attributes": {
            "NORMAL": 5,
            "POSITION": 4,
            "TEXCOORD_0": 6
          },
          "indices": 7,
          "material": 2,
          "mode": 4
        }
      ]
    },
    {
      "name": "Object_2",
      "primitives": [
        {
          "attributes": {
            "NORMAL": 9,
            "POSITION": 8,
            "TEXCOORD_0": 10
          },
          "indices": 11,
          "material": 3,
          "mode": 4
        }
      ]
    },
    {
      "name": "Object_3",
      "primitives": [
        {
          "attributes": {
            "NORMAL": 13,
            "POSITION": 12,
            "TEXCOORD_0": 14
          },
          "indices": 15,
          "material": 0,
          "mode": 4
        }
      ]
    },
    {
      "name": "Object_4",
      "primitives": [
        {
          "attributes": {
            "NORMAL": 17,
            "POSITION": 16,
            "TEXCOORD_0": 18
          },
          "indices": 19,
          "material": 4,
          "mode": 4
        }
      ]
    },
    {
      "name": "Object_5",
      "primitives": [
        {
          "attributes": {
            "NORMAL": 21,
            "POSITION": 20,
            "TEXCOORD_0": 22
          },
          "indices": 23,
          "material": 4,
          "mode": 4
        }
      ]
    }
  ],
  "nodes": [
    {
      "children": [
        1
      ],
      "matrix": [
        1.0,
        0.0,
        0.0,
        0.0,
        0.0,
        2.220446049250313e-16,
        -1.0,
        0.0,
        0.0,
        1.0,
        2.220446049250313e-16,
        0.0,
        0.0,
        0.0,
        0.0,
        1.0
      ],
      "name": "Sketchfab_model"
    },
    {
      "children": [
        2,
        3,
        4,
        5,
        6,
        7
      ],
      "name": "Astronauta.obj.cleaner.materialmerger.gles"
    },
    {
      "mesh": 0,
      "name": "Object_2"
    },
    {
      "mesh": 1,
      "name": "Object_3"
    },
    {
      "mesh": 2,
      "name": "Object_4"
    },
    {
      "mesh": 3,
      "name": "Object_5"
    },
    {
      "mesh": 4,
      "name": "Object_6"
    },
    {
      "mesh": 5,
      "name": "Object_7"
    }
  ],
  "scene": 0,
  "scenes": [
    {
      "name": "Sketchfab_Scene",
      "nodes": [
        0
      ]
    }
  ]
}
